<svg width="47" height="119" viewBox="0 0 47 119" fill="none" xmlns="http://www.w3.org/2000/svg">
<path d="M32.7886 62.0886L28.2221 55.9493C26.869 56.2199 25.5498 56.3552 24.2645 56.3552C20.9157 56.3552 17.8376 55.5772 15.03 54.0212C12.2563 52.4652 10.0407 50.3004 8.38327 47.5266C6.75963 44.7191 5.94781 41.5733 5.94781 38.0893C5.94781 34.6052 6.75963 31.4763 8.38327 28.7026C10.0407 25.9289 12.2563 23.764 15.03 22.2081C17.8376 20.6521 20.9157 19.8741 24.2645 19.8741C27.6132 19.8741 30.6744 20.6521 33.4482 22.2081C36.2557 23.764 38.4544 25.9289 40.0442 28.7026C41.6678 31.4763 42.4796 34.6052 42.4796 38.0893C42.4796 41.1336 41.8539 43.9242 40.6023 46.4611C39.3846 48.9642 37.6764 51.0445 35.4777 52.702L43.2915 62.0886H32.7886ZM14.8271 38.0893C14.8271 41.2351 15.6727 43.7551 17.364 45.6493C19.0891 47.5097 21.3893 48.4399 24.2645 48.4399C27.1058 48.4399 29.3722 47.4928 31.0634 45.5986C32.7886 43.7043 33.6511 41.2012 33.6511 38.0893C33.6511 34.9435 32.7886 32.4404 31.0634 30.5799C29.3722 28.6857 27.1058 27.7386 24.2645 27.7386C21.3893 27.7386 19.0891 28.6688 17.364 30.5292C15.6727 32.3896 14.8271 34.9096 14.8271 38.0893Z" fill="black"/>
<path d="M43.6416 62.9791V98.7275H34.9337V77.2887L26.9386 98.7275H19.9112L11.8652 77.2377V98.7275H3.15727V62.9791H13.4439L23.4758 87.728L33.4059 62.9791H43.6416Z" fill="black"/>
</svg>
